<svg height="512" viewBox="0 0 58 58" width="512" xmlns="http://www.w3.org/2000/svg"><g id="Page-1" fill="none" fill-rule="evenodd"><g id="022---Chick-in-Egg" fill-rule="nonzero" transform="translate(-1 -1)"><path id="Shape" d="m18.64 30.91c-10.55 8.39-17.64 2.24-17.64-3.91-.01407551-.7325148.07684785-1.4632692.27-2.17.54-1.83 1.73-1.83 1.73-1.83-.01327972-1.0381253.39436242-2.0373897 1.13-2.77.52532835-.5424896 1.1638217-.9624611 1.87-1.23 0-3 3-4 3-4 1.1223629 2.6365462 2.5201196 5.1471451 4.17 7.49z" fill="#f29c1f"/><path id="Shape" d="m7.45 22.11c-1.39-.7-1.45-3.07-1.45-3.11-.7061783.2675389-1.34467165.6875104-1.87 1.23.19443788 1.5296428 1.08866829 2.8820739 2.42 3.66.32118077.1932607.72347054.1906728 1.04213834-.0067041.3186678-.1973768.50019272-.5563928.47024333-.9300368s-.26634303-.6991617-.61238167-.8432591z" fill="#e57e25"/><path id="Shape" d="m4.45 26.11c-1.39-.7-1.45-3.07-1.45-3.11 0 0-1.19 0-1.73 1.83.28897712 1.2984114 1.11849298 2.411709 2.28 3.06.32118077.1932607.72347054.1906728 1.04213834-.0067041.3186678-.1973768.50019272-.5563928.47024333-.9300368s-.26634303-.6991617-.61238167-.8432591z" fill="#e57e25"/><path id="Shape" d="m59 27c0 6.15-7.09 12.3-17.64 3.91l5.47-8.42c1.6498804-2.3428549 3.0476371-4.8534538 4.17-7.49 0 0 3 1 3 4 .7061783.2675389 1.3446716.6875104 1.87 1.23.7356376.7326103 1.1432797 1.7318747 1.13 2.77 0 0 1.19 0 1.73 1.82v.01c.1931522.7067308.2840755 1.4374852.27 2.17z" fill="#f29c1f"/><path id="Shape" d="m55.87 20.23c-.1944379 1.5296428-1.0886683 2.8820739-2.42 3.66-.4835272.2013504-1.0404963-.0045141-1.2768341-.4719378s-.0719586-1.0380149.3768341-1.3080622c1.41-.71 1.45-3.09 1.45-3.11.7061783.2675389 1.3446716.6875104 1.87 1.23z" fill="#e57e25"/><path id="Shape" d="m58.73 24.82v.01c-.2889771 1.2984114-1.118493 2.411709-2.28 3.06-.4835272.2013504-1.0404963-.0045141-1.2768341-.4719378s-.0719586-1.0380149.3768341-1.3080622c1.41-.71 1.45-3.09 1.45-3.11 0 0 1.19 0 1.73 1.82z" fill="#e57e25"/><path id="Shape" d="m47 24c-.0497705 3.8600738-3.1408769 6.9909231-7 7.09l-10 5.28-9.96-5.28c-3.8745511-.0784011-6.9890212-3.2149911-7.04-7.09-.0002423-1.9642634.8275263-3.8376343 2.28-5.16-1.1483359-5.9350198 1.3799125-11.97910059 6.412066-15.32881207 5.0321535-3.34971148 11.5837145-3.34971148 16.615868 0s7.5604019 9.39379227 6.412066 15.32881207c1.4524737 1.3223657 2.2802423 3.1957366 2.28 5.16z" fill="#f0c419"/><path id="Shape" d="m30 59c-12.932 0-22.1-8.539-20.89-26.01.02546593-.3012577.18288297-.5758223.43-.75l9.16-6.88c.7612464-.5317972 1.7883988-.4696711 2.48.15l7.48 6.98c.7636906.6806295 1.9163094.6806295 2.68 0 .093-.078-.324.309 7.48-6.98.6916012-.6196711 1.7187536-.6817972 2.48-.15l9.16 6.88c.247117.1741777.4045341.4487423.43.75 1.21 17.425-7.901 26.01-20.89 26.01z" fill="#f5efca"/><path id="Shape" d="m30 26c2-1 3-4 3-4s-2-2-3-2-3 2-3 2 1 3 3 4z" fill="#f29c1f"/><circle id="Oval" cx="22" cy="18" fill="#35495e" r="3"/><circle id="Oval" cx="38" cy="18" fill="#35495e" r="3"/><path id="Shape" d="m33 2.5c0 1.83-1.43 3.5-3 3.5-.5522847 0-1-.44771525-1-1s.4477153-1 1-1c.33 0 1-.69 1-1.5 0-1.43-.83-1.5-1-1.5.9531573-.00176736 1.9042514.08865356 2.84.27.108801.40085996.1626268.81464537.16 1.23z" fill="#f29c1f"/><g fill="#fac176"><path id="Shape" d="m37.97 45.24c-.1329088.5354504-.6743509.8621055-1.21.73l-3.1-.78-.71 2.13c-.1375721.4073117-.5200841.6811098-.95.68-.1083857-.002696-.215958-.0195042-.32-.05-.5213514-.1805176-.8017081-.7456812-.63-1.27l.77-2.31-3.42-2.57c-.3886863-.2901121-.5112453-.8183838-.29-1.25l.67-1.35-1.49-1.49c-.3045136-.3070687-.3771374-.7750889-.18-1.16l1.91-3.81c.7468498.4231786 1.6804512.322575 2.32-.25l.06-.05-2.18 4.36 1.49 1.49c.3045136.3070687.3771374.7750889.18 1.16l-.62 1.25 3.17 2.38 3.8.95c.5354504.1329088.8621055.6743509.73 1.21z"/><path id="Shape" d="m22.293 39.293-2 2c-.3044429.3041447-.3801654.7689521-.188 1.154l.606 1.211-2.266 1.51c-.2780697.1855246-.44505.4977215-.445.832v2c0 .5522847.4477153 1 1 1s1-.4477153 1-1v-1.465l2.555-1.7c.4195797-.2796427.5653296-.8279193.34-1.279l-.678-1.356 1.49-1.49c.3789722-.3923789.3735524-1.0160848-.0121814-1.4018186s-1.0094397-.3911536-1.4018186-.0121814z"/><path id="Shape" d="m46.555 41.168-2.266-1.51.606-1.211c.2468713-.4942948.0462948-1.0951287-.448-1.342-.4942949-.2468712-1.0951287-.0462948-1.342.448l-1 2c-.2253296.4510807-.0795797.9993573.34 1.279l2.266 1.51-.606 1.211c-.2468713.4942949-.0462949 1.0951287.448 1.342s1.0951287.0462949 1.342-.448l1-2c.2253296-.4510807.0795797-.9993573-.34-1.279z"/></g><circle id="Oval" cx="21" cy="17" fill="#ecf0f1" r="1"/><circle id="Oval" cx="37" cy="17" fill="#ecf0f1" r="1"/></g></g></svg>