<svg id="Capa_1" enable-background="new 0 0 512 512" height="512" viewBox="0 0 512 512" width="512" xmlns="http://www.w3.org/2000/svg"><g><g><path d="m362.054 303.622c-.001 0-.001 0-.002 0l-212.139-.032c-4.054 0-7.935-1.642-10.759-4.549-24.604-25.334-38.154-58.732-38.154-94.042 0-69.517 46.167-130.19 112.788-149.001l51.605-51.605c4.29-4.29 10.744-5.571 16.347-3.252 5.605 2.322 9.26 7.792 9.26 13.858v39.151c31.537 7.299 60.188 24.389 81.717 48.968 24.687 28.186 38.283 64.368 38.283 101.881 0 35.328-13.562 68.738-38.189 94.077-2.825 2.907-6.706 4.546-10.757 4.546z" fill="#ffed28"/></g><path d="m291 54.15v-39.151c0-6.067-3.654-11.537-9.26-13.858-5.603-2.319-12.057-1.038-16.347 3.252l-9.393 9.394v289.82l106.052.016h.002c4.052 0 7.933-1.64 10.757-4.546 24.627-25.339 38.189-58.75 38.189-94.078 0-37.513-13.596-73.695-38.283-101.881-21.529-24.579-50.18-41.669-81.717-48.968z" fill="#ffcd00"/><g><path d="m256 512c-55.979 0-103.562-17.088-137.608-49.417-18.412-17.485-32.635-39.239-42.272-64.659-10.033-26.463-15.12-57.054-15.12-90.924 0-12.286.689-25.126 2.049-38.164.508-4.868 3.357-9.182 7.636-11.558 4.278-2.376 9.448-2.516 13.848-.374l48.104 23.414 55.086-26.806c4.144-2.017 8.986-2.017 13.13.001l55.055 26.804 55.105-26.807c4.142-2.014 8.978-2.015 13.119-.002l55.156 26.812 48.187-23.424c4.399-2.139 9.565-1.999 13.844.379 4.276 2.376 7.126 6.689 7.633 11.556 1.36 13.045 2.05 25.887 2.05 38.168 0 33.87-5.087 64.461-15.119 90.924-9.638 25.42-23.86 47.174-42.272 64.659-34.049 32.33-81.632 49.418-137.611 49.418z" fill="#fff5f5"/></g><path d="m435.881 397.924c10.032-26.463 15.119-57.054 15.119-90.924 0-12.281-.689-25.123-2.05-38.168-.507-4.866-3.356-9.179-7.633-11.556-4.278-2.377-9.444-2.518-13.844-.379l-48.187 23.424-55.156-26.812c-4.142-2.013-8.978-2.012-13.119.002l-55.011 26.761v231.728c55.979 0 103.562-17.088 137.608-49.417 18.413-17.485 32.635-39.239 42.273-64.659z" fill="#e2dff4"/><circle cx="306" cy="144.999" fill="#4f4540" r="15"/><circle cx="206" cy="144.999" fill="#7d4a3b" r="15"/><g><path d="m256 239.999c-3.839 0-7.678-1.464-10.606-4.394l-20-20c-5.858-5.858-5.858-15.355 0-21.213 5.857-5.858 15.355-5.858 21.213 0l9.394 9.393 9.394-9.393c5.857-5.858 15.355-5.858 21.213 0s5.858 15.355 0 21.213l-20 20c-2.93 2.93-6.769 4.394-10.608 4.394z" fill="#f37bb6"/></g><path d="m266.606 235.606 20-20c5.858-5.858 5.858-15.355 0-21.213-5.857-5.858-15.355-5.858-21.213 0l-9.393 9.393v36.213c3.839 0 7.678-1.464 10.606-4.393z" fill="#eb1d83"/></g></svg>