<svg height="512" viewBox="0 0 60 60" width="512" xmlns="http://www.w3.org/2000/svg"><g id="Page-1" fill="none" fill-rule="evenodd"><g id="022---Chick-in-Egg" fill-rule="nonzero"><path id="Shape" d="m51 36c0 16.02-9.4 23-21 23s-21-6.98-21-23c0-.878.045-2.134.11-3.01.02546593-.3012577.18288297-.5758223.43-.75l9.16-6.88c.7612464-.5317972 1.7883988-.4696711 2.48.15l7.48 6.98c.7638629.6801772 1.9161371.6801772 2.68 0l7.48-6.98c.6916012-.6196711 1.7187536-.6817972 2.48-.15l9.16 6.88c.247117.1741777.4045341.4487423.43.75.065.876.11 2.131.11 3.01z" fill="#e8edfc"/><path id="Shape" d="m50.89 32.99c-.0254659-.3012577-.182883-.5758223-.43-.75-6.278-4.714-4.088-3.07-9.16-6.88-.8234838-.5693816-1.9399167-.4489277-2.623.283l8.783 6.6c.247117.1741777.4045341.4487423.43.75.065.876.11 2.131.11 3.01 0 15.321-8.6 22.356-19.5 22.943.5.026.994.057 1.5.057 11.6 0 21-6.98 21-23 0-.881-.045-2.137-.11-3.013z" fill="#cad9fc"/><path id="Shape" d="m47 24c.0023184 1.6215713-.5638382 3.1926559-1.6 4.44l-4.1-3.08c-.7612464-.5317972-1.7883988-.4696711-2.48.15l-7.48 6.98c-.7638629.6801772-1.9161371.6801772-2.68 0l-7.48-6.98c-.6916012-.6196711-1.7187536-.6817972-2.48-.15l-4.1 3.08c-1.0361618-1.2473441-1.6023184-2.8184287-1.6-4.44.0005077-.5080794.0575249-1.0145262.17-1.51v-.01c.3113478-1.4018088 1.0483041-2.6731458 2.11-3.64-.1846967-.9354225-.2784668-1.8865191-.28-2.84 0-8.28427125 6.7157288-15 15-15s15 6.71572875 15 15c-.0015332.9534809-.0953033 1.9045775-.28 2.84 1.0613696.9630309 1.7984652 2.2311148 2.11 3.63v.02c.1124751.4954738.1694923 1.0019206.17 1.51z" fill="#e8edfc"/><path id="Shape" d="m35.82 25.51-7.32 6.831c.7559631.7979785 2.0046854.8634924 2.84.149l7.337-6.847c-.7672724-.7929762-2.0193758-.8512646-2.857-.133z" fill="#cad9fc"/><path id="Shape" d="m15.7 25.36-2.043 1.54c.2466941.5518055.5636513 1.0694239.943 1.54l3.723-2.8c-.6834687-.7317853-1.8004592-.8510218-2.623-.28z" fill="#cad9fc"/><path id="Shape" d="m44.72 18.84c.8964353-4.6519714-.457494-9.45401335-3.6519574-12.9525613s-7.8539486-5.28234422-12.5680426-4.8114387c4.1915561.42156671 8.0123742 2.58709215 10.527437 5.96663649 2.5150629 3.37954431 3.4922991 7.66126841 2.692563 11.79736351 2.2573521 2.0358516 2.9164764 5.3091366 1.623 8.06l2.057 1.54c2.3703498-2.8690933 2.0711085-7.0936767-.68-9.6z" fill="#cad9fc"/><path id="Shape" d="m14.6 28.44-5.06 3.8c-.24711703.1741777-.40453407.4487423-.43.75-.05.67-.08 1.35-.09 2.01-2.1344528.0362224-4.19242354-.7943376-5.70381025-2.3019552-1.51138671-1.5076177-2.34708259-3.5635082-2.31618975-5.6980448 0-4 2-4 2-4 0-3 3-4 3-4 0-3 3-4 3-4 1.1161254 2.6364474 2.5142635 5.1443786 4.17 7.48v.01c-.1124751.4954738-.1694923 1.0019206-.17 1.51-.0023184 1.6215713.5638382 3.1926559 1.6 4.44z" fill="#a4c2f7"/><path id="Shape" d="m59 27c.0308928 2.1345366-.804803 4.1904271-2.3161898 5.6980448-1.5113867 1.5076176-3.5693574 2.3381776-5.7038102 2.3019552-.01-.66-.04-1.34-.09-2.01-.0254659-.3012577-.182883-.5758223-.43-.75l-5.06-3.8c1.0361618-1.2473441 1.6023184-2.8184287 1.6-4.44-.0005077-.5080794-.0575249-1.0145262-.17-1.51v-.02c1.6558043-2.3320272 3.0539692-4.8366535 4.17-7.47 0 0 3 1 3 4 0 0 3 1 3 4 0 0 2 0 2 4z" fill="#a4c2f7"/><path id="Shape" d="m57 23c0-3-3-4-3-4 0-3-3-4-3-4-.225.562-.479 1.123-.746 1.678.4938609.6726374.7556835 1.4875865.746 2.322 0 0 3 1 3 4 0 0 2 0 2 4 .022629 3.2924716-1.9814388 6.2600335-5.044 7.469.006.177.021.357.024.531 2.1344528.0362224 4.1924235-.7943376 5.7038102-2.3019552 1.5113868-1.5076177 2.3470826-3.5635082 2.3161898-5.6980448 0-4-2-4-2-4z" fill="#7facfa"/><path id="Shape" d="m30 26c2-1 3-4 3-4s-2-2-3-2-3 2-3 2 1 3 3 4z" fill="#e8edfc"/><circle id="Oval" cx="22" cy="18" fill="#a4c2f7" r="2"/><circle id="Oval" cx="38" cy="18" fill="#a4c2f7" r="2"/><path id="Shape" d="m30 59c.511 0 1-.036 1.5-.062-11.983-.638-19.882-8.893-19.484-23.938-2.13384778.0354084-4.19093767-.7955449-5.70151043-2.3031026-1.51057275-1.5075576-2.34563447-3.5629831-2.31448957-5.6968974 0-4 2-4 2-4 0-3 3-4 3-4-.00953825-.8336179.25190827-1.647787.745-2.32-.267-.556-.521-1.116-.745-1.68 0 0-3 1-3 4 0 0-3 1-3 4 0 0-2 0-2 4-.0311449 2.1339143.80391682 4.1893398 2.31448957 5.6968974 1.51057276 1.5075577 3.56766265 2.338511 5.70151043 2.3031026-.416 15.668 8.157 24 20.984 24z" fill="#fff"/><path id="Shape" d="m31.613 1.092c-.5865297-.06235168-1.1762001-.09039942-1.766-.084-4.4475835.04301698-8.6462282 2.05956906-11.4600967 5.50412896-2.8138686 3.4445599-3.9521472 7.96113174-3.1069033 12.32787104-.3108523.2902664-.5949947.6078767-.849.949.6 1 1.2 1.916 1.739 2.691.3113478-1.4018088 1.0483041-2.6731458 2.11-3.64-.8024429-4.1524055.1889737-8.4504895 2.7291934-11.83186053 2.5402197-3.38137102 6.3921965-5.53048901 10.6038066-5.91613947z" fill="#fff"/><path id="Shape" d="m16.238 7.871 1.72 1.019c-1.2742918 2.153301-1.9502581 4.607908-1.958 7.11h-2c.0081277-2.8607061.7807962-5.6672399 2.238-8.129z" fill="#fff"/><g fill="#428dff"><path id="Shape" d="m15.558 13.039c-.5522847.0027614-1.0022386-.4427153-1.005-.995s.4427153-1.0022386.995-1.005h.01c.5522847 0 1 .4477153 1 1s-.4477153 1-1 1z"/><path id="Shape" d="m57.949 22.251c-.2912701-1.7189098-1.4092621-3.1846383-2.99-3.92-.3455625-1.9830398-1.740641-3.6220559-3.643-4.28-.5025881-.1675361-1.0486227.0859643-1.245.578-.8253763 1.9742083-1.8260466 3.8704619-2.99 5.666-.3423866-.6544171-.7734535-1.2584491-1.281-1.795.1332267-.8266667.2001067-1.6626667.2-2.5-.0104696-8.8322157-7.1677843-15.98953038-16-16-2.7795207.01368708-5.5088584.74164821-7.926 2.114-1.1993334.69101845-2.3078756 1.52880761-3.3 2.494-.9823174.97442624-1.8353067 2.07107884-2.538 3.263-.1495318.22983141-.1936507.51263457-.1212307.77709173.0724199.26445716.2544665.48532629.5002307.60690827.4749496.23531697 1.0508332.07857014 1.341-.365.6153895-1.04350687 1.3617848-2.00397413 2.221-2.858.8697964-.84357597 1.840482-1.57646037 2.89-2.182 2.1124477-1.19886974 4.4971065-1.83583463 6.926-1.85.2734204-.02787493.5449464.06822158.7399626.26188214.1950162.19366055.2930044.46450968.2670374.73811786-.0710467.5200264-.4799736.92895325-1 1-.5522847.00000001-1 .44771526-1 1s.4477153.99999999 1 1c1.6224449-.08026535 2.9197346-1.37755508 3-3-.000889-.23083571-.0250106-.46099577-.072-.687 6.451885 1.38805013 11.0624132 7.08749915 11.072 13.687-.0019561.8889904-.089358 1.7757347-.261 2.648-.0671046.3421475.0488453.6945443.306.93 1.2422784 1.1351023 1.9514774 2.7392343 1.955 4.422.0019701 1.0617794-.283453 2.1042996-.826 3.017l-3.3-2.484c-1.1476096-.7972645-2.6941764-.6943261-3.726.248l-7.474 6.962c-.3740315.3411791-.9448505.3463488-1.325.012l-7.5-6.985c-1.0444956-.9397286-2.6012802-1.028664-3.746-.214l-3.273 2.461c-.5438092-.9123594-.830611-1.9548664-.83-3.017.0035226-1.6827657.7127216-3.2868977 1.955-4.422.2571547-.2354557.3731046-.5878525.306-.93-.171642-.8722653-.2590439-1.7590096-.261-2.648 0-.5522847-.4477153-1-1-1s-1 .4477153-1 1c-.0001067.8373333.0667733 1.6733333.2 2.5-.5089813.5378992-.9410794 1.1436442-1.284 1.8-1.1639534-1.7955381-2.1646237-3.6917917-2.99-5.666-.19637729-.4920357-.74241189-.7455361-1.245-.578-1.90235901.6579441-3.29743747 2.2969602-3.643 4.28-1.58073791.7353617-2.69872986 2.2010902-2.99 3.92-.877.425-2.048 1.59-2.048 4.744-.03993699 4.5996279 3.42466384 8.475217 8 8.949v.051c0 15.028 8.224 24 22 24s22-8.972 22-24v-.051c4.5753362-.473783 8.039937-4.3493721 8-8.949 0-3.154-1.171-4.319-2.051-4.749zm-55.949 4.749c-.02103188-.7100509.08045307-1.4184159.3-2.094.29476502 1.2712575 1.11308667 2.3587209 2.253 2.994.49429485.2468713 1.09512868.0462948 1.34199996-.448.24687127-.4942949.04629486-1.0951287-.44799996-1.342-1.382-.696-1.447-3.054-1.447-3.11.00070511-.9497093.44958068-1.8433831 1.211-2.411.25161881 1.3961183 1.10938236 2.6087806 2.342 3.311.49429485.2468713 1.09512872.0462949 1.342-.448s.04629485-1.0951287-.448-1.342c-1.383-.696-1.447-3.056-1.447-3.11.01285628-1.0756642.57998382-2.0685155 1.5-2.626 1.0261958 2.2105909 2.2357578 4.3313384 3.616 6.34-.3287471 1.910738.0659014 3.8754243 1.107 5.511l-4.247 3.19c-.49953245.3436415-.81620645.8953384-.861 1.5-.026.341-.04.684-.057 1.026-3.50552675-.4082761-6.12753588-3.4124632-6.058-6.941zm28 31c-12.523 0-20-8.224-20-22-.00493044-.9895797.0438078-1.9786987.146-2.963l5.078-3.819.013-.007.005-.006 4.027-3.027c.1684957-.1171407.368786-.1799495.574-.18.2400903-.0010712.4720467.0869368.651.247l7.5 6.985c.1752816.1554663.3682802.2897262.575.4l-1.464 2.926c-.1921654.3850479-.1164429.8498553.188 1.154l1.49 1.49-.678 1.356c-.2141972.4315863-.0901826.9545496.295 1.244l3.423 2.568-.772 2.316c-.174522.5246705.1093295 1.091478.634 1.266.5246705.1745219 1.091478-.1093295 1.266-.634l.707-2.121 3.1.775c.0790953.0200775.1603964.0301562.242.03.5047125-.0005564.929899-.377126.9914367-.8780733.0615377-.5009472-.259865-.9692298-.7494367-1.0919267l-3.8-.951-3.174-2.379.627-1.254c.1921654-.3850479.1164429-.8498553-.188-1.154l-1.49-1.49 1.443-2.886c.5056606-.1133982.9738629-.3543847 1.36-.7l7.473-6.963c.3320199-.3047695.8283175-.3459219 1.206-.1l9.155 6.882.037.025c.072.979.109 1.967.109 2.938 0 13.778-7.477 22.002-20 22.002zm21.942-24.059c-.017-.343-.031-.685-.057-1.027-.0434439-.5965916-.3525538-1.142123-.842-1.486l-4.263-3.2c1.0410986-1.6355757 1.4357471-3.600262 1.107-5.511 1.3802422-2.0086616 2.5898042-4.1294091 3.616-6.34.9179676.5576515 1.4837536 1.5490055 1.497 2.623 0 .024-.04 2.4-1.447 3.105-.4942948.2468713-.6948712.8477051-.448 1.342.2468713.4942948.8477052.6948713 1.342.448 1.2314186-.7011412 2.089011-1.9117306 2.342-3.306.7619183.5671983 1.2109286 1.4611404 1.211 2.411 0 .024-.04 2.4-1.447 3.105-.4942949.2468713-.6948713.8477051-.448 1.342s.8477051.6948713 1.342.448c1.1372308-.6325963 1.9551765-1.7152036 2.253-2.982.2203812.6729796.3218973 1.3791935.3 2.087.0695359 3.5285368-2.5524733 6.5327239-6.058 6.941z"/><path id="Shape" d="m29.553 26.9c.2814108.1406214.6125892.1406214.894 0 2.344-1.172 3.455-4.44 3.5-4.579.1195324-.3593148.0258526-.7553247-.242-1.023-.687-.698-2.429-2.298-3.705-2.298s-3.018 1.6-3.707 2.293c-.2678526.2676753-.3615324.6636852-.242 1.023.049.139 1.158 3.407 3.502 4.584zm.43-5.9c.6873987.3018114 1.311658.7306504 1.84 1.264-.4022224.981868-1.0261585 1.8573637-1.823 2.558-.7944107-.7031831-1.4173186-1.5788801-1.821-2.56.5225183-.5233878 1.1331922-.9505887 1.804-1.262z"/><path id="Shape" d="m25 18c0-1.2133867-.7309265-2.3072956-1.8519497-2.7716386s-2.4113767-.2076757-3.2693706.6503183c-.857994.8579939-1.1146613 2.1483474-.6503183 3.2693706s1.5582519 1.8519497 2.7716386 1.8519497c1.6568542 0 3-1.3431458 3-3zm-4 0c0-.5522847.4477153-1 1-1s1 .4477153 1 1-.4477153 1-1 1-1-.4477153-1-1z"/><path id="Shape" d="m41 18c0-1.6568542-1.3431458-3-3-3s-3 1.3431458-3 3 1.3431458 3 3 3 3-1.3431458 3-3zm-4 0c0-.5522847.4477153-1 1-1s1 .4477153 1 1-.4477153 1-1 1-1-.4477153-1-1z"/><path id="Shape" d="m22.293 39.293-2 2c-.3044429.3041447-.3801654.7689521-.188 1.154l.606 1.211-2.266 1.51c-.2780697.1855246-.44505.4977215-.445.832v2c0 .5522847.4477153 1 1 1s1-.4477153 1-1v-1.465l2.555-1.7c.4195797-.2796427.5653296-.8279193.34-1.279l-.678-1.356 1.49-1.49c.3789722-.3923789.3735524-1.0160848-.0121814-1.4018186s-1.0094397-.3911536-1.4018186-.0121814z"/><path id="Shape" d="m46.555 41.168-2.266-1.51.606-1.211c.2468713-.4942948.0462948-1.0951287-.448-1.342-.4942949-.2468712-1.0951287-.0462948-1.342.448l-1 2c-.2253296.4510807-.0795797.9993573.34 1.279l2.266 1.51-.606 1.211c-.2468713.4942949-.0462949 1.0951287.448 1.342s1.0951287.0462949 1.342-.448l1-2c.2253296-.4510807.0795797-.9993573-.34-1.279z"/></g></g></g></svg>