<svg id="Layer_1" enable-background="new 0 0 512 512" height="512" viewBox="0 0 512 512" width="512" xmlns="http://www.w3.org/2000/svg"><g><g clip-rule="evenodd" fill-rule="evenodd"><path d="m201.636 136.3c12.655 7.93 30.156 15.413 53.614 21.699 23.901-6.404 41.617-14.051 54.325-22.148 53.823-34.295 17.785-76.662-18.825-66.852 2.893-10.795 8.5-58.999-35.5-58.999s-39.653 43.501-35.5 58.999c-36.77-9.852-72.962 32.928-18.114 67.301z" fill="#ff5a58"/><path d="m309.575 135.851c-12.707 8.097-30.424 15.744-54.325 22.148-23.458-6.286-40.96-13.769-53.614-21.7-35.497 20.439-58.692 60.562-65.636 105.701l-40.002 260h320.003l-40.001-260c-6.996-45.473-30.484-85.854-66.425-106.149zm-94.076 149.148c17.989-10.386 17-30 38-30s20.011 19.614 38 30 17.022 26.743 2.252 38.298c-.982.768-1.905 1.678-2.777 2.709 9.592 22.092 15.525 47.844 15.525 62.48 0 29.271-23.729 53-53 53s-53-23.729-53-53c0-14.636 5.933-40.388 15.527-62.482-.875-1.029-1.798-1.939-2.779-2.707-14.77-11.555-15.737-27.912 2.252-38.298z" fill="#fff"/><path d="m291.499 284.999c-17.989-10.386-17-30-38-30s-20.011 19.614-38 30-17.022 26.743-2.253 38.298c.982.768 1.905 1.678 2.779 2.707 12.287 14.456 15.068 52.482 37.473 52.482s25.186-38.026 37.473-52.482c.875-1.029 1.798-1.939 2.779-2.707 14.771-11.555 15.738-27.912-2.251-38.298z" fill="#ffda8f"/><path d="m253.499 378.487c-22.405 0-25.186-38.026-37.473-52.482-9.594 22.094-15.527 47.846-15.527 62.482 0 29.271 23.729 53 53 53s53-23.729 53-53c0-14.636-5.933-40.388-15.527-62.482-12.287 14.456-15.068 52.482-37.473 52.482z" fill="#ff5a58"/></g><g><path d="m425.885 500.479-40.002-260c-3.687-23.962-11.833-46.772-23.56-65.966-9.582-15.685-21.631-29.011-35.295-39.179 1.128-.981 2.222-1.973 3.261-2.98 18.768-18.194 17.708-35.324 15.406-43.916-4.888-18.24-23.105-30.449-43.224-30.842.779-11.647-.334-28.346-10.216-41.224-5.73-7.469-16.803-16.372-37.005-16.372-16.944 0-29.783 5.535-38.159 16.452-9.789 12.757-10.564 29.333-9.443 41.153-19.966.542-37.987 12.71-42.843 30.833-2.303 8.592-3.362 25.722 15.406 43.916 1.244 1.206 2.576 2.386 3.948 3.555-30.32 22.817-51.207 60.141-58.043 104.57l-40.001 260c-.443 2.884.395 5.817 2.294 8.032 1.9 2.214 4.672 3.489 7.59 3.489h320.003c2.918 0 5.689-1.274 7.59-3.489 1.898-2.215 2.736-5.148 2.293-8.032zm-241.762-406.864c2.313-8.636 12.357-16.067 24.725-16.067 2.68 0 5.472.349 8.314 1.111 3.453.927 7.133-.062 9.659-2.588s3.513-6.208 2.588-9.659c-2.446-9.128-4.451-27.358 3.549-37.784 4.454-5.806 11.746-8.628 22.292-8.628 9.811 0 16.726 2.796 21.139 8.547 8.233 10.73 6.677 30.495 4.702 37.863-.925 3.451.062 7.133 2.588 9.66 2.526 2.526 6.207 3.516 9.659 2.588 15.961-4.275 30.224 4.45 33.038 14.957 4.285 15.993-16.117 38.753-71.126 54.019-55.01-15.266-75.412-38.026-71.127-54.019zm-76.468 398.385 38.229-248.479c6.358-41.32 27.1-76.621 55.864-95.533 13.601 7.646 30.615 14.231 50.916 19.671.848.227 1.718.341 2.588.341s1.74-.114 2.588-.341c20.698-5.546 37.993-12.279 51.723-20.117 29.148 18.822 50.135 54.255 56.554 95.98l38.228 248.478z"/><path d="m314.848 302.215c-.722-10.272-7.238-19.461-18.349-25.876-5.586-3.225-8.887-7.87-12.381-12.788-5.873-8.265-13.182-18.551-30.619-18.551s-24.747 10.287-30.62 18.552c-3.495 4.917-6.796 9.563-12.381 12.788-11.11 6.415-17.627 15.604-18.349 25.876-.667 9.495 3.57 18.762 11.969 26.436-8.135 20.77-13.621 44.578-13.621 59.836 0 14.695 5.172 29.002 14.564 40.285 1.978 2.376 4.823 3.603 7.691 3.603 2.255 0 4.523-.759 6.392-2.315 4.245-3.533 4.821-9.838 1.288-14.083-6.407-7.697-9.936-17.459-9.936-27.489 0-8.358 2.372-22.294 6.969-37.39 6.559 16.686 14.739 37.39 36.031 37.39 21.291 0 29.472-20.704 36.031-37.39 4.597 15.095 6.969 29.03 6.969 37.39 0 10.032-3.53 19.796-9.939 27.493-3.534 4.244-2.959 10.55 1.285 14.084 1.869 1.557 4.138 2.316 6.394 2.316 2.867 0 5.713-1.227 7.69-3.601 9.396-11.283 14.57-25.592 14.57-40.292 0-15.262-5.484-39.064-13.621-59.836 8.404-7.676 12.639-16.943 11.973-26.438zm-43.893 41.464c-5.709 14.525-10.303 24.807-17.456 24.807-7.154 0-11.748-10.282-17.458-24.808-4.449-11.32-8.652-22.013-16.633-28.257-4.901-3.835-7.565-8.137-7.308-11.804.325-4.633 5.401-8.228 8.397-9.958 9.362-5.405 14.531-12.679 18.684-18.523 5.473-7.701 7.527-10.137 14.317-10.137 6.789 0 8.844 2.436 14.316 10.137 4.152 5.845 9.321 13.118 18.684 18.523 2.996 1.73 8.072 5.324 8.397 9.958.258 3.667-2.406 7.969-7.308 11.804-7.978 6.245-12.181 16.937-16.632 28.258z"/><path d="m315.253 236h-.007c-5.522 0-9.997 4.477-9.997 10s4.481 10 10.004 10 10-4.477 10-10-4.477-10-10-10z"/><path d="m206.753 246c0-5.523-4.478-10-10-10h-.008c-5.522 0-9.996 4.477-9.996 10s4.481 10 10.004 10 10-4.477 10-10z"/><path d="m253.499 431.487h-.008c-5.522 0-9.996 4.477-9.996 10s4.481 10 10.004 10 10-4.477 10-10-4.477-10-10-10z"/></g></g></svg>